<?xml version="1.0" standalone="no"?><!DOCTYPE svg PUBLIC "-//W3C//DTD SVG 1.1//EN" "http://www.w3.org/Graphics/SVG/1.1/DTD/svg11.dtd"><svg t="1612959440967" class="icon" viewBox="0 0 1024 1024" version="1.1" xmlns="http://www.w3.org/2000/svg" p-id="2154" xmlns:xlink="http://www.w3.org/1999/xlink" width="200" height="200"><defs><style type="text/css"></style></defs><path d="M145.96 569.74s-16.48-82.42-9.16-250.02l-71.43 26.56s21.98 100.74 33.89 200.56c11.91 99.82 14.65 165.76 14.65 165.76s189.77 0 203.41-76.01c13.64-76.01-171.36-66.85-171.36-66.85z m41.21 105.32l-8.24-64.11 65.94 22.9-57.7 41.21zM318.03 527.61l30.32 157.52 33.89-4.58S372.17 556 366.67 521.2l-48.64 6.41zM300.73 444.27l12.82 61.36 18.32-4.95-10.07-62.82zM331.87 437.86l8.24 62.82h21.07l-3.67-62.82zM458.63 530.82l10.84 160.05 34.19-0.4s5.23-124.85 4.03-160.06l-49.06 0.41zM451.65 445.99l5.23 62.47 18.78-2.68-2.32-63.58zM483.34 443.43l0.5 63.35 20.91 2.58 4.04-62.79zM366.67 367.35s34.8 174.01 40.3 297.64h32.97l-22.9-297.64h-50.37zM597.8 569.74s-16.48-82.42-9.16-250.02l-71.43 26.56s21.98 100.74 33.89 200.56c11.91 99.82 14.65 165.76 14.65 165.76s189.77 0 203.41-76.01c13.64-76.01-171.36-66.85-171.36-66.85z m41.21 105.32l-8.24-64.11 65.94 22.9-57.7 41.21zM769.87 527.61l30.32 157.52 33.89-4.58S824.01 556 818.51 521.2l-48.64 6.41zM752.57 444.27l12.83 61.36 18.31-4.95-10.07-62.82zM783.71 437.86l8.25 62.82h21.06l-3.66-62.82zM910.47 530.82l10.84 160.05 34.19-0.4s5.23-124.85 4.03-160.06l-49.06 0.41zM903.49 445.99l5.23 62.47 18.78-2.68-2.32-63.58zM935.18 443.43l0.5 63.35 20.91 2.58 4.04-62.79zM818.51 367.35s34.8 174.01 40.3 297.64h32.97l-22.9-297.64h-50.37z" p-id="2155" fill="#d4237a"></path></svg>