<?xml version="1.0" encoding="UTF-8"?>
<svg xmlns="http://www.w3.org/2000/svg" xmlns:xlink="http://www.w3.org/1999/xlink" viewBox="0 0 240 240" width="240px" height="240px">
<g id="surface4577224">
<path style=" stroke:none;fill-rule:nonzero;fill:rgb(100%,100%,100%);fill-opacity:1;" d="M 120 240 C 53.726562 240 0 186.273438 0 120 C 0 53.726562 53.726562 0 120 0 C 186.273438 0 240 53.726562 240 120 C 240 186.273438 186.273438 240 120 240 Z M 120 240 "/>
<path style=" stroke:none;fill-rule:nonzero;fill:rgb(27.058825%,35.294119%,39.215687%);fill-opacity:1;" d="M 182.378906 88.292969 C 184.675781 81.789062 186.972656 69.160156 180.847656 55 C 163.628906 55 149.085938 67.246094 146.789062 69.542969 C 138.371094 67.628906 129.183594 66.863281 120 66.863281 C 110.433594 66.863281 101.246094 68.011719 92.445312 69.925781 C 80.582031 57.679688 64.890625 55 58.769531 55 C 58.769531 55 55.324219 61.886719 55.324219 74.136719 C 55.324219 81.789062 57.238281 86.382812 58.386719 88.675781 C 49.199219 98.246094 43.460938 111.257812 43.460938 128.09375 C 43.460938 170.957031 70.632812 185.5 120 185.5 C 169.367188 185.5 196.539062 170.957031 196.539062 128.09375 C 196.539062 110.492188 191.183594 97.480469 182.378906 88.292969 Z M 182.378906 88.292969 "/>
<path style=" stroke:none;fill-rule:nonzero;fill:rgb(100%,80.000001%,73.725492%);fill-opacity:1;" d="M 120 177.464844 C 88.617188 177.464844 62.59375 172.105469 62.59375 143.019531 C 62.59375 131.921875 68.71875 125.800781 72.929688 121.972656 C 82.496094 113.554688 98.570312 117.378906 120 117.378906 C 135.691406 117.378906 149.085938 114.699219 159.800781 118.144531 C 170.515625 121.589844 177.40625 131.539062 177.40625 142.253906 C 177.40625 172.488281 162.097656 177.464844 120 177.464844 Z M 120 177.464844 "/>
<path style=" stroke:none;fill-rule:nonzero;fill:rgb(84.705883%,26.274511%,8.235294%);fill-opacity:1;" d="M 123.828125 158.328125 C 123.828125 160.625 122.296875 162.15625 120 162.15625 C 117.703125 162.15625 116.171875 160.625 116.171875 158.328125 C 116.171875 156.03125 117.703125 154.5 120 154.5 C 122.296875 154.5 123.828125 156.03125 123.828125 158.328125 Z M 129.566406 167.894531 C 130.332031 167.128906 130.332031 165.980469 129.566406 165.21875 C 128.800781 164.453125 127.652344 164.453125 126.886719 165.21875 C 123.445312 168.660156 116.9375 168.660156 113.492188 165.21875 C 112.730469 164.453125 111.582031 164.453125 110.816406 165.21875 C 110.050781 165.980469 110.050781 167.128906 110.816406 167.894531 C 113.492188 170.574219 116.554688 171.722656 120.382812 171.722656 C 124.210938 171.722656 126.886719 170.191406 129.566406 167.894531 Z M 129.566406 167.894531 "/>
<path style=" stroke:none;fill-rule:nonzero;fill:rgb(100%,100%,100%);fill-opacity:1;" d="M 100.863281 141.105469 C 100.863281 150.675781 95.890625 158.328125 89.382812 158.328125 C 82.878906 158.328125 77.902344 150.675781 77.902344 141.105469 C 77.902344 131.539062 82.878906 123.886719 89.382812 123.886719 C 95.890625 123.886719 100.863281 131.539062 100.863281 141.105469 Z M 150.617188 123.886719 C 144.109375 123.886719 139.136719 131.539062 139.136719 141.105469 C 139.136719 150.675781 144.109375 158.328125 150.617188 158.328125 C 157.121094 158.328125 162.097656 150.675781 162.097656 141.105469 C 162.097656 131.539062 157.121094 123.886719 150.617188 123.886719 Z M 150.617188 123.886719 "/>
<path style=" stroke:none;fill-rule:nonzero;fill:rgb(42.745098%,29.803923%,25.490198%);fill-opacity:1;" d="M 158.269531 143.019531 C 158.269531 149.527344 154.824219 154.5 150.617188 154.5 C 146.40625 154.5 142.960938 149.527344 142.960938 143.019531 C 142.960938 142.253906 142.960938 141.105469 143.34375 140.339844 C 143.726562 141.871094 145.257812 143.019531 146.789062 143.019531 C 149.085938 143.019531 150.617188 141.488281 150.617188 139.195312 C 150.617188 136.898438 149.085938 135.367188 146.789062 135.367188 C 146.023438 135.367188 145.257812 135.75 144.492188 136.132812 C 146.023438 133.453125 147.9375 131.539062 150.617188 131.539062 C 154.824219 131.539062 158.269531 136.515625 158.269531 143.019531 Z M 89.382812 131.539062 C 86.707031 131.539062 84.792969 133.453125 83.261719 136.132812 C 84.027344 135.75 84.792969 135.367188 85.558594 135.367188 C 87.851562 135.367188 89.382812 136.898438 89.382812 139.195312 C 89.382812 141.488281 87.851562 143.019531 85.558594 143.019531 C 84.027344 143.019531 82.496094 141.871094 82.113281 140.339844 C 82.113281 141.105469 81.730469 142.253906 81.730469 143.019531 C 81.730469 149.527344 85.175781 154.5 89.382812 154.5 C 93.59375 154.5 97.039062 149.527344 97.039062 143.019531 C 97.039062 136.515625 93.59375 131.539062 89.382812 131.539062 Z M 89.382812 131.539062 "/>
</g>
</svg>
