<?xml version="1.0" standalone="no"?><!DOCTYPE svg PUBLIC "-//W3C//DTD SVG 1.1//EN" "http://www.w3.org/Graphics/SVG/1.1/DTD/svg11.dtd"><svg t="1609247854173" class="icon" viewBox="0 0 1024 1024" version="1.1" xmlns="http://www.w3.org/2000/svg" p-id="2591" xmlns:xlink="http://www.w3.org/1999/xlink" width="200" height="200"><defs><style type="text/css"></style></defs><path d="M72.777518 499.133396c0 261.113472 191.117508 440.820979 452.011557 452.011557 202.600649 8.703782 319.918859-98.008978 429.264697-263.600267-52.442118 19.601796-109.345838 43.226348-164.494174 43.226348-129.898467 0-255.042767-43.445771-346.907899-135.310903C350.859709 503.741281 293.882847 364.261339 293.882847 234.362872c0-55.148336 22.893142-111.978915 42.421797-164.421032C178.466304 168.0971 72.850659 309.917555 72.850659 499.206537zM153.598354 870.177834A521.349252 521.349252 0 0 1 0.002194 499.133396c0-115.19712 37.00936-223.95783 107.005325-314.506423A524.201752 524.201752 0 0 1 226.300537 72.428635 533.344381 533.344381 0 0 1 376.751633 1.042991a25.59936 25.59936 0 0 1 29.987821 36.27795c-32.913463 64.364105-48.273079 125.656287-48.273078 193.092316 0 239.902574 195.140264 435.18912 435.115979 435.18912 67.436028 0 128.72821-15.359616 193.092315-48.419361a25.59936 25.59936 0 0 1 36.277951 30.060963 534.587778 534.587778 0 0 1-71.312503 150.451096 524.201752 524.201752 0 0 1-112.271479 119.293017A509.646687 509.646687 0 0 1 524.862216 1023.993417 521.93438 521.93438 0 0 1 153.598354 870.177834z" p-id="2592"></path></svg>