<?xml version="1.0" standalone="no"?><!DOCTYPE svg PUBLIC "-//W3C//DTD SVG 1.1//EN" "http://www.w3.org/Graphics/SVG/1.1/DTD/svg11.dtd"><svg t="1586259141989" class="icon" viewBox="0 0 1024 1024" version="1.1" xmlns="http://www.w3.org/2000/svg" p-id="11963" xmlns:xlink="http://www.w3.org/1999/xlink" width="200" height="200"><defs><style type="text/css"></style></defs><path d="M512 0C229.184 0 0 229.184 0 512s229.184 512 512 512 512-229.216 512-512S794.784 0 512 0z m251.616 351.008l-84 395.808c-5.792 28.192-22.784 34.784-46.4 21.792l-128-94.592-61.408 59.808c-7.2 7.008-12.8 12.8-25.6 12.8-16.608 0-13.792-6.208-19.392-22.016L355.2 581.408l-126.592-39.392c-27.392-8.384-27.584-27.2 6.208-40.608l493.184-190.4c22.4-10.208 44.192 5.408 35.616 40z" p-id="11964" fill="#1296db"></path></svg>