<?xml version="1.0" encoding="UTF-8"?>
<svg xmlns="http://www.w3.org/2000/svg" xmlns:xlink="http://www.w3.org/1999/xlink" viewBox="0 0 250 250" width="250px" height="250px">
<g id="surface4580932">
<path style=" stroke:none;fill-rule:nonzero;fill:rgb(100%,100%,100%);fill-opacity:1;" d="M 125 250 C 55.964844 250 0 194.035156 0 125 C 0 55.964844 55.964844 0 125 0 C 194.035156 0 250 55.964844 250 125 C 250 194.035156 194.035156 250 125 250 Z M 125 250 "/>
<path style=" stroke:none;fill-rule:nonzero;fill:rgb(20.392157%,59.607846%,85.882354%);fill-opacity:1;" d="M 189.902344 62.902344 C 188.269531 62.976562 186.683594 63.429688 185.25 64.003906 C 183.832031 64.574219 175.667969 68.058594 163.613281 73.210938 C 151.558594 78.363281 135.890625 85.078125 120.355469 91.730469 C 89.289062 105.042969 58.761719 118.136719 58.761719 118.136719 L 58.984375 118.050781 C 58.984375 118.050781 57.144531 118.667969 55.273438 119.96875 C 54.339844 120.621094 53.335938 121.460938 52.511719 122.6875 C 51.691406 123.910156 51.089844 125.648438 51.316406 127.484375 C 52.113281 133.933594 58.796875 135.761719 58.796875 135.761719 L 58.820312 135.773438 L 88.648438 145.984375 C 89.410156 148.519531 97.699219 176.179688 99.519531 182.035156 C 100.527344 185.273438 101.46875 187.140625 102.453125 188.414062 C 102.945312 189.054688 103.460938 189.546875 104.027344 189.90625 C 104.253906 190.050781 104.492188 190.160156 104.730469 190.253906 C 104.734375 190.257812 104.738281 190.253906 104.742188 190.253906 C 104.769531 190.269531 104.796875 190.269531 104.828125 190.28125 L 104.75 190.261719 C 104.804688 190.285156 104.859375 190.320312 104.914062 190.339844 C 105.019531 190.378906 105.085938 190.375 105.21875 190.40625 C 108.636719 191.597656 111.464844 189.382812 111.464844 189.382812 L 111.582031 189.292969 L 129.90625 172.296875 L 159.640625 195.484375 L 160.015625 195.652344 C 165.21875 197.964844 169.925781 196.675781 172.535156 194.554688 C 175.140625 192.433594 176.167969 189.699219 176.167969 189.699219 L 176.277344 189.410156 L 198.128906 75.523438 C 198.6875 72.972656 198.765625 70.769531 198.238281 68.78125 C 197.710938 66.789062 196.429688 65.0625 194.824219 64.101562 C 193.214844 63.144531 191.535156 62.832031 189.902344 62.902344 Z M 190.078125 69.714844 C 190.742188 69.6875 191.234375 69.761719 191.386719 69.855469 C 191.542969 69.945312 191.613281 69.933594 191.761719 70.496094 C 191.910156 71.058594 191.992188 72.238281 191.585938 74.089844 L 191.570312 74.128906 L 169.84375 187.355469 C 169.792969 187.46875 169.339844 188.515625 168.304688 189.359375 C 167.253906 190.214844 166.078125 190.886719 162.964844 189.582031 L 130.449219 164.222656 L 129.53125 163.503906 L 129.511719 163.523438 L 119.789062 156.226562 L 174.4375 91.929688 C 175.296875 90.921875 175.480469 89.503906 174.910156 88.308594 C 174.34375 87.117188 173.125 86.371094 171.800781 86.40625 C 171.167969 86.421875 170.554688 86.617188 170.027344 86.96875 L 90.945312 139.6875 L 61.074219 129.460938 C 61.074219 129.460938 58.105469 127.808594 57.964844 126.65625 C 57.957031 126.59375 57.921875 126.652344 58.074219 126.421875 C 58.230469 126.191406 58.617188 125.804688 59.101562 125.46875 C 60.074219 124.789062 61.183594 124.378906 61.183594 124.378906 L 61.296875 124.339844 L 61.40625 124.296875 C 61.40625 124.296875 91.9375 111.199219 123 97.890625 C 138.535156 91.234375 154.199219 84.527344 166.25 79.375 C 178.300781 74.226562 187.003906 70.515625 187.742188 70.21875 C 188.582031 69.882812 189.417969 69.746094 190.078125 69.714844 Z M 153.835938 105.816406 L 112.394531 154.574219 L 112.375 154.59375 C 112.308594 154.671875 112.246094 154.753906 112.191406 154.835938 C 112.125 154.929688 112.0625 155.023438 112.007812 155.117188 C 111.773438 155.515625 111.625 155.953125 111.566406 156.40625 C 111.566406 156.417969 111.566406 156.425781 111.566406 156.433594 L 106.167969 180.714844 C 106.078125 180.449219 106.015625 180.355469 105.921875 180.046875 L 105.921875 180.039062 C 104.207031 174.53125 96.386719 148.445312 95.304688 144.839844 Z M 117.070312 162.566406 L 124.519531 168.15625 L 113.578125 178.296875 Z M 117.070312 162.566406 "/>
</g>
</svg>
