<?xml version="1.0" standalone="no"?><!DOCTYPE svg PUBLIC "-//W3C//DTD SVG 1.1//EN" "http://www.w3.org/Graphics/SVG/1.1/DTD/svg11.dtd"><svg t="1607178773032" class="icon" viewBox="0 0 1024 1024" version="1.1" xmlns="http://www.w3.org/2000/svg" p-id="1146" xmlns:xlink="http://www.w3.org/1999/xlink" width="200" height="200"><defs><style type="text/css"></style></defs><path d="M877.216 491.808" p-id="1147" fill="#2c2c2c"></path><path d="M694.688 457.76l-159.36-161.12c-9.408-9.536-23.296-11.904-34.976-7.168-0.736 0.288-1.312 0.992-2.016 1.344-2.976 1.472-5.984 3.072-8.48 5.568-0.032 0.032-0.032 0.064-0.064 0.096-0.032 0.032-0.064 0.032-0.096 0.064l-160.224 159.776c-12.576 12.544-12.608 32.896-0.064 45.504 6.272 6.304 14.56 9.472 22.784 9.472 8.224 0 16.448-3.104 22.72-9.376l104.192-103.872 0 306.72c0 17.792 14.4 32.192 32.16 32.192 17.76 0 32.192-14.4 32.192-32.192l0-308.416 105.536 106.688c6.272 6.368 14.56 9.568 22.88 9.568 8.16 0 16.352-3.072 22.624-9.312C707.072 490.784 707.2 470.4 694.688 457.76L694.688 457.76zM995.264 599.2" p-id="1148" fill="#2c2c2c"></path></svg>