<?xml version="1.0" encoding="UTF-8"?>
<svg xmlns="http://www.w3.org/2000/svg" xmlns:xlink="http://www.w3.org/1999/xlink" viewBox="0 0 240 240" width="240px" height="240px">
<g id="surface4576093">
<path style=" stroke:none;fill-rule:nonzero;fill:rgb(100%,100%,100%);fill-opacity:1;" d="M 120 240 C 53.726562 240 0 186.273438 0 120 C 0 53.726562 53.726562 0 120 0 C 186.273438 0 240 53.726562 240 120 C 240 186.273438 186.273438 240 120 240 Z M 120 240 "/>
<path style=" stroke:none;fill-rule:nonzero;fill:rgb(100%,100%,100%);fill-opacity:1;" d="M 157.777344 138.890625 C 155.511719 116.976562 129.066406 101.867188 97.332031 105.265625 C 78.820312 107.15625 61.820312 115.089844 52.378906 126.421875 C 46.332031 133.601562 43.6875 141.910156 44.445312 150.222656 C 46.332031 170.246094 68.621094 184.222656 96.578125 184.222656 C 99.222656 184.222656 101.867188 184.222656 104.890625 183.84375 C 123.398438 181.957031 140.398438 174.023438 149.84375 162.6875 C 155.890625 155.511719 158.535156 147.199219 157.777344 138.890625 Z M 157.777344 138.890625 "/>
<path style=" stroke:none;fill-rule:nonzero;fill:rgb(82.745099%,18.431373%,18.431373%);fill-opacity:1;" d="M 104.132812 176.289062 C 77.3125 178.933594 53.890625 166.84375 52 149.464844 C 50.109375 132.089844 70.890625 115.464844 97.710938 112.820312 C 124.910156 110.179688 147.957031 122.265625 149.84375 139.644531 C 151.734375 157.398438 131.332031 173.644531 104.132812 176.289062 M 160.421875 119.621094 C 158.15625 118.867188 156.644531 118.488281 157.777344 115.464844 C 160.421875 109.042969 160.800781 103.378906 157.777344 99.222656 C 152.488281 91.667969 137.753906 92.042969 121.132812 98.84375 C 121.132812 98.84375 115.84375 101.109375 117.355469 96.957031 C 120 88.644531 119.621094 81.84375 115.464844 78.066406 C 106.398438 69 82.222656 78.445312 61.445312 98.84375 C 45.957031 114.332031 36.890625 130.578125 36.890625 144.554688 C 36.890625 171.753906 71.644531 188 106.023438 188 C 150.601562 188 180.445312 162.3125 180.445312 141.910156 C 180.445312 129.445312 169.867188 122.644531 160.421875 119.621094 "/>
<path style=" stroke:none;fill-rule:nonzero;fill:rgb(14.901961%,19.607843%,21.960784%);fill-opacity:1;" d="M 108.289062 144.179688 C 107.15625 146.066406 104.890625 147.199219 103 146.445312 C 101.109375 145.6875 100.734375 143.421875 101.488281 141.535156 C 102.621094 139.644531 104.890625 138.511719 106.398438 139.644531 C 108.667969 140.023438 109.042969 141.910156 108.289062 144.179688 M 95.820312 153.246094 C 93.179688 157.023438 87.132812 158.910156 82.601562 157.023438 C 78.066406 155.132812 76.933594 150.601562 79.578125 147.199219 C 82.222656 143.421875 87.890625 141.910156 92.421875 143.421875 C 97.332031 144.933594 98.84375 149.464844 95.820312 153.246094 M 106.777344 124.535156 C 93.554688 121.132812 78.820312 127.554688 73.15625 138.890625 C 67.488281 150.601562 72.777344 163.445312 86.378906 167.601562 C 99.976562 172.132812 116.222656 165.332031 121.890625 152.867188 C 127.554688 140.777344 120.378906 127.933594 106.777344 124.535156 "/>
<path style=" stroke:none;fill-rule:nonzero;fill:rgb(97.647059%,65.882355%,14.509805%);fill-opacity:1;" d="M 195.179688 104.890625 C 192.046875 104.890625 189.511719 107.425781 189.511719 110.554688 C 189.511719 113.683594 192.046875 116.222656 195.179688 116.222656 C 198.308594 116.222656 200.84375 113.683594 200.84375 110.554688 C 200.84375 107.425781 198.308594 104.890625 195.179688 104.890625 Z M 195.179688 104.890625 "/>
<path style=" stroke:none;fill-rule:nonzero;fill:rgb(97.647059%,65.882355%,14.509805%);fill-opacity:1;" d="M 200.464844 112.445312 C 199.710938 114.710938 197.445312 116.222656 195.179688 116.222656 C 192.15625 116.222656 189.511719 113.578125 189.511719 110.554688 C 189.511719 109.800781 189.511719 109.042969 189.890625 108.289062 C 191.023438 104.890625 191.777344 101.109375 191.777344 97.332031 C 191.777344 78.445312 176.667969 63.332031 157.777344 63.332031 C 156.265625 63.332031 154.378906 63.332031 152.867188 63.710938 C 152.867188 63.710938 152.867188 63.710938 152.488281 63.710938 L 152.109375 63.710938 C 149.089844 63.710938 146.445312 61.066406 146.445312 58.042969 C 146.445312 55.023438 149.089844 52.378906 152.109375 52.378906 C 154 52 155.890625 52 157.777344 52 C 182.710938 52 203.109375 72.398438 203.109375 97.332031 C 203.109375 102.621094 202.355469 107.535156 200.464844 112.445312 Z M 180.445312 97.332031 C 180.445312 84.867188 170.246094 74.667969 157.777344 74.667969 C 157.023438 74.667969 156.265625 74.667969 155.132812 74.667969 C 155.132812 74.667969 155.132812 74.667969 154.753906 74.667969 C 152.109375 75.042969 149.84375 77.3125 149.84375 80.332031 C 149.84375 83.355469 152.488281 86 155.511719 86 L 155.890625 86 C 156.265625 86 157.023438 86 157.398438 86 C 163.820312 86 168.734375 90.910156 168.734375 97.332031 C 168.734375 98.464844 168.355469 99.976562 167.976562 101.109375 C 167.601562 101.867188 167.601562 102.246094 167.601562 103 C 167.601562 106.023438 170.246094 108.667969 173.265625 108.667969 C 175.535156 108.667969 177.421875 107.15625 178.554688 105.265625 L 178.554688 104.890625 C 178.554688 104.511719 178.554688 104.511719 178.933594 104.132812 C 180.066406 101.867188 180.445312 99.601562 180.445312 97.332031 Z M 180.445312 97.332031 "/>
</g>
</svg>
