<?xml version="1.0" standalone="no"?><!DOCTYPE svg PUBLIC "-//W3C//DTD SVG 1.1//EN" "http://www.w3.org/Graphics/SVG/1.1/DTD/svg11.dtd"><svg t="1586259180905" class="icon" viewBox="0 0 1024 1024" version="1.1" xmlns="http://www.w3.org/2000/svg" p-id="12479" xmlns:xlink="http://www.w3.org/1999/xlink" width="200" height="200"><defs><style type="text/css"></style></defs><path d="M430.208 898.016c-169.6 16.8-316-60-327.008-171.2-11.008-111.392 117.6-215.008 287.008-231.808 169.6-16.8 316 60 326.816 171.2 11.2 111.392-117.408 215.2-286.816 231.808z m339.008-369.408c-14.4-4.384-24.384-7.2-16.8-26.208 16.384-41.184 18.016-76.608 0.192-102.016-33.216-47.392-124.192-44.992-228.384-1.184 0 0-32.8 14.208-24.384-11.616 16-51.616 13.6-94.592-11.392-119.616-56.608-56.608-207.008 2.208-336 131.2C56.032 495.36 0.032 597.984 0.032 686.56c0 169.216 217.184 272.192 429.6 272.192 278.4 0 463.808-161.792 463.808-290.208 0-77.792-65.408-121.792-124.192-140zM954.208 218.592a271.008 271.008 0 0 0-258.016-83.584 39.04 39.04 0 0 0-30.016 46.4 38.976 38.976 0 0 0 46.4 30.016c65.216-13.792 135.616 6.4 183.392 59.392s60.8 125.184 40.192 188.416a39.36 39.36 0 0 0 25.216 49.408 39.36 39.36 0 0 0 49.408-25.184v-0.192a270.304 270.304 0 0 0-56.608-264.608z" p-id="12480" fill="#d81e06"></path><path d="M850.784 312a131.584 131.584 0 0 0-125.6-40.608 34.016 34.016 0 0 0-26.016 40.192c4 18.208 22.016 29.792 40 25.792a64.352 64.352 0 0 1 74.816 83.008c-5.6 17.6 4 36.8 21.792 42.592a33.952 33.952 0 0 0 42.592-21.792 131.776 131.776 0 0 0-27.616-129.184zM439.616 696.608c-6.016 10.208-19.008 15.008-29.184 10.784-10.208-4-13.184-15.616-7.392-25.408 6.016-9.792 18.592-14.592 28.608-10.784 10.016 3.616 13.6 15.008 8 25.408z m-54.208 69.184c-16.384 26.208-51.616 37.6-78.016 25.6-26.016-11.808-33.792-42.208-17.408-67.808 16.192-25.408 50.208-36.8 76.384-25.792 26.592 11.392 35.2 41.6 19.008 68z m61.6-185.184c-80.608-20.992-171.808 19.2-206.816 90.208-35.808 72.384-1.184 152.992 80.192 179.392 84.384 27.2 184-14.592 218.592-92.608 34.208-76.608-8.384-155.2-92-176.992z" p-id="12481" fill="#d81e06"></path></svg>